<?xml version="1.0" encoding="UTF-8"?>
<svg width="980px" height="256px" viewBox="0 0 980 256" version="1.1" xmlns="http://www.w3.org/2000/svg" xmlns:xlink="http://www.w3.org/1999/xlink">
    <title>Fabular_logo_new V3 Copy</title>
    <g id="Page-1" stroke="none" stroke-width="1" fill="none" fill-rule="evenodd">
        <g id="Fabular_logo_new-V3-Copy">
            <g id="Fabular-typo-outlines-Copy-2" transform="translate(283.676000, 64.548000)" fill="#212026" fill-rule="nonzero">
                <path d="M619.558,128.262 C620.908,128.262 622.0015,127.803 622.8385,126.885 C623.6755,125.967 624.094,124.752 624.094,123.24 C624.094,121.674 623.7025,120.4455 622.9195,119.5545 C622.1365,118.6635 621.016,118.218 619.558,118.218 C618.208,118.218 617.1145,118.6905 616.2775,119.6355 C615.4405,120.5805 615.022,121.782 615.022,123.24 C615.022,124.86 615.4135,126.102 616.1965,126.966 C616.9795,127.83 618.1,128.262 619.558,128.262 Z M652.039,128.262 C654.145,128.262 656.1565,127.938 658.0735,127.29 C659.9905,126.642 661.7185,125.751 663.2575,124.617 C664.7965,123.483 666.106,122.1735 667.186,120.6885 C667.366,120.441 667.53625,120.191625 667.69675,119.940375 L667.753,119.849 L667.753,127.452 L673.909,127.452 L673.909,85.17 L667.834,85.17 L667.669,92.604 L667.550781,92.4017812 L667.550781,92.4017812 L667.3075,92.0145 C666.3085,90.4755 665.0665,89.1255 663.5815,87.9645 C662.0965,86.8035 660.409,85.899 658.519,85.251 C656.629,84.603 654.577,84.279 652.363,84.279 C648.637,84.279 645.2755,85.224 642.2785,87.114 C639.2815,89.004 636.892,91.596 635.11,94.89 C633.328,98.184 632.437,101.964 632.437,106.23 C632.437,110.442 633.301,114.2085 635.029,117.5295 C636.757,120.8505 639.106,123.4695 642.076,125.3865 C645.046,127.3035 648.367,128.262 652.039,128.262 Z M653.416,122.43 C650.554,122.43 648.016,121.728 645.802,120.324 C643.588,118.92 641.86,116.9895 640.618,114.5325 C639.376,112.0755 638.755,109.308 638.755,106.23 C638.755,103.098 639.3895,100.317 640.6585,97.887 C641.9275,95.457 643.6555,93.54 645.8425,92.136 C648.0295,90.732 650.554,90.03 653.416,90.03 C656.224,90.03 658.735,90.732 660.949,92.136 C663.163,93.54 664.9045,95.457 666.1735,97.887 C667.4425,100.317 668.077,103.098 668.077,106.23 C668.077,109.362 667.4425,112.1565 666.1735,114.6135 C664.9045,117.0705 663.163,118.9875 660.949,120.3645 C658.735,121.7415 656.224,122.43 653.416,122.43 Z M691.162,76.017 C692.62,76.017 693.754,75.612 694.564,74.802 C695.374,73.992 695.779,72.939 695.779,71.643 C695.779,70.239 695.374,69.1455 694.564,68.3625 C693.754,67.5795 692.62,67.188 691.162,67.188 C689.704,67.188 688.57,67.593 687.76,68.403 C686.95,69.213 686.545,70.293 686.545,71.643 C686.545,72.993 686.9365,74.0595 687.7195,74.8425 C688.5025,75.6255 689.65,76.017 691.162,76.017 Z M694.24,127.452 L694.24,85.17 L688.165,85.17 L688.165,127.452 L694.24,127.452 Z" id=".ai"></path>
                <path d="M105.48,34.572 C109.952,34.572 114.051333,35.2313333 117.778,36.55 C121.285451,37.791098 124.386609,39.4638824 127.081474,41.5683529 L127.582,41.968 L128.138133,42.4312533 C129.9728,43.99072 131.616356,45.7030756 133.0688,47.56832 L133.4988,48.13248 L133.688,48.393 L133.688,36.464 L157.94,36.464 L157.94,127.452 L133.344,127.452 L133.343,115.563 L133.163602,115.787242 C131.338117,118.020331 129.190917,120.04525 126.722,121.862 C123.683333,124.098 120.272,125.875333 116.488,127.194 C112.704,128.512667 108.690667,129.172 104.448,129.172 C96.88,129.172 90.0573333,127.108 83.98,122.98 C77.9026667,118.852 73.0866667,113.233333 69.532,106.124 C65.9773333,99.0146667 64.2,90.8733333 64.2,81.7 C64.2,72.5266667 66.006,64.3853333 69.618,57.276 C73.23,50.1666667 78.132,44.6053333 84.324,40.592 C90.516,36.5786667 97.568,34.572 105.48,34.572 Z M206.641104,0.172 L206.641,46.824 L206.932025,46.4809844 C208.673077,44.4720781 210.75477,42.6524167 213.177104,41.022 C216.158437,39.0153333 219.426437,37.4386667 222.981104,36.292 C226.53577,35.1453333 230.205104,34.572 233.989104,34.572 C241.901104,34.572 248.98177,36.6073333 255.231104,40.678 C261.480437,44.7486667 266.382437,50.3386667 269.937104,57.448 C273.49177,64.5573333 275.269104,72.6986667 275.269104,81.872 C275.269104,91.0453333 273.520437,99.1866667 270.023104,106.296 C266.52577,113.405333 261.681104,118.995333 255.489104,123.066 C249.297104,127.136667 242.302437,129.172 234.505104,129.172 C230.49177,129.172 226.593104,128.598667 222.809104,127.452 C219.27737,126.381778 216.045299,124.936978 213.11289,123.1176 L212.489104,122.722 L211.91465,122.342391 C209.830494,120.938172 207.990229,119.398458 206.393854,117.72325 L205.964525,117.263016 L205.667,116.932 L205.093104,127.108 L182.045104,127.108 L182.045104,0.172 L206.641104,0.172 Z M317.118888,36.464 L317.118888,88.58 L317.123568,89.1660091 C317.185972,93.0480348 317.872412,96.4360317 319.182888,99.33 C320.558888,102.368667 322.508221,104.690667 325.030888,106.296 C327.553554,107.901333 330.649554,108.704 334.318888,108.704 C336.956221,108.704 339.392888,108.274 341.628888,107.414 C343.864888,106.554 345.814221,105.321333 347.476888,103.716 C349.139554,102.110667 350.429554,100.218667 351.346888,98.04 C352.203065,96.0065778 352.659694,93.8233244 352.716772,91.49024 L352.722888,90.988 L352.722888,36.464 L377.146888,36.464 L377.146888,127.452 L353.926888,127.452 L353.35,114.891 L353.335455,114.911607 C352.528236,116.032912 351.636047,117.117043 350.658888,118.164 C347.448221,121.604 343.606888,124.298667 339.134888,126.248 C334.662888,128.197333 329.846888,129.172 324.686888,129.172 C318.036221,129.172 312.331554,127.71 307.572888,124.786 C302.814221,121.862 299.144888,117.676667 296.564888,112.23 C294.068114,106.959032 292.779456,100.64103 292.698915,93.2759938 L292.694888,92.536 L292.694888,36.464 L317.118888,36.464 Z M483.818282,34.572 C488.290282,34.572 492.389616,35.2313333 496.116282,36.55 C499.623733,37.791098 502.724891,39.4638824 505.419756,41.5683529 L505.920282,41.968 L506.476416,42.4312533 C508.311082,43.99072 509.954638,45.7030756 511.407082,47.56832 L511.837082,48.13248 L512.026,48.392 L512.026282,36.464 L536.278282,36.464 L536.278282,127.452 L511.682282,127.452 L511.682,115.562 L511.501884,115.787242 C509.676399,118.020331 507.529199,120.04525 505.060282,121.862 C502.021616,124.098 498.610282,125.875333 494.826282,127.194 C491.042282,128.512667 487.028949,129.172 482.786282,129.172 C475.218282,129.172 468.395616,127.108 462.318282,122.98 C456.240949,118.852 451.424949,113.233333 447.870282,106.124 C444.315616,99.0146667 442.538282,90.8733333 442.538282,81.7 C442.538282,72.5266667 444.344282,64.3853333 447.956282,57.276 C451.568282,50.1666667 456.470282,44.6053333 462.662282,40.592 C468.854282,36.5786667 475.906282,34.572 483.818282,34.572 Z M43.344,0 C47.3573333,0 51.1413333,0.659333333 54.696,1.978 C55.2584737,2.18665961 55.8080276,2.40608573 56.3446617,2.63627837 L56.343,25.137 L55.9473878,24.8996327 C54.8767755,24.2736463 53.7915374,23.7207891 52.6916735,23.2410612 L52.03,22.962 C50.482,22.3313333 49.0773333,22.016 47.816,22.016 C45.6373333,22.016 43.8313333,22.3886667 42.398,23.134 C41.0602222,23.8296444 40.0470785,24.8249511 39.3585689,26.11992 L39.216,26.402 L39.0829867,26.6936356 C38.5264711,27.9789215 38.2283378,29.5441215 38.1885867,31.3892356 L38.184,31.82 L38.184,38.7 L56.343,38.699 L56.343,59.339 L38.184,59.34 L38.184,127.452 L13.588,127.452 L13.588,59.34 L0,59.34 L0,38.7 L13.588,38.7 L13.588,30.1 L13.5928265,29.4999745 C13.6797041,24.1175153 14.9394286,19.2148571 17.372,14.792 C19.8946667,10.2053333 23.3633333,6.59333333 27.778,3.956 C32.1926667,1.31866667 37.3813333,0 43.344,0 Z M426.020075,0.172 L426.020075,127.452 L401.596075,127.452 L401.596075,0.172 L426.020075,0.172 Z M611.467386,34.572 C612.709356,34.572 613.928053,34.6418198 615.123476,34.7814593 L615.123,63.056 L614.953693,62.9667574 C613.736463,62.3438935 612.201693,61.7943077 610.349386,61.318 C608.342719,60.802 606.307386,60.544 604.243386,60.544 C601.491386,60.544 598.940052,61.0313333 596.589386,62.006 C594.238719,62.9806667 592.203386,64.3566667 590.483386,66.134 C588.763386,67.9113333 587.416052,70.004 586.441386,72.412 C585.531697,74.6594667 585.046529,77.1067081 584.985884,79.7537244 L584.979386,80.324 L584.979386,127.452 L560.383386,127.452 L560.383386,36.464 L583.947386,36.464 L584.38,51.184 L584.693311,50.6673264 C585.50427,49.3580179 586.402295,48.0922424 587.387386,46.87 C590.483386,43.0286667 594.124052,40.0186667 598.309386,37.84 C602.494719,35.6613333 606.880719,34.572 611.467386,34.572 Z M228.657104,55.556 C224.070437,55.556 220.057104,56.6453333 216.617104,58.824 C213.177104,61.0026667 210.511104,64.0986667 208.619104,68.112 C206.727104,72.1253333 205.781104,76.712 205.781104,81.872 C205.781104,87.1466667 206.727104,91.762 208.619104,95.718 C210.511104,99.674 213.177104,102.77 216.617104,105.006 C220.057104,107.242 224.070437,108.36 228.657104,108.36 C233.24377,108.36 237.228437,107.242 240.611104,105.006 C243.99377,102.77 246.65977,99.674 248.609104,95.718 C250.558437,91.762 251.533104,87.1466667 251.533104,81.872 C251.533104,76.712 250.587104,72.1253333 248.695104,68.112 C246.803104,64.0986667 244.137104,61.0026667 240.697104,58.824 C237.257104,56.6453333 233.24377,55.556 228.657104,55.556 Z M111.156,55.556 C106.684,55.556 102.756667,56.674 99.374,58.91 C95.9913333,61.146 93.3253333,64.2133333 91.376,68.112 C89.4266667,72.0106667 88.452,76.54 88.452,81.7 C88.452,86.9746667 89.4266667,91.59 91.376,95.546 C93.3253333,99.502 95.9913333,102.569333 99.374,104.748 C102.756667,106.926667 106.684,108.016 111.156,108.016 C115.742667,108.016 119.756,106.926667 123.196,104.748 C126.636,102.569333 129.302,99.502 131.194,95.546 C133.086,91.59 134.032,86.9746667 134.032,81.7 C134.032,76.54 133.086,72.0106667 131.194,68.112 C129.302,64.2133333 126.636,61.146 123.196,58.91 C119.756,56.674 115.742667,55.556 111.156,55.556 Z M489.494282,55.556 C485.022282,55.556 481.094949,56.674 477.712282,58.91 C474.329616,61.146 471.663616,64.2133333 469.714282,68.112 C467.764949,72.0106667 466.790282,76.54 466.790282,81.7 C466.790282,86.9746667 467.764949,91.59 469.714282,95.546 C471.663616,99.502 474.329616,102.569333 477.712282,104.748 C481.094949,106.926667 485.022282,108.016 489.494282,108.016 C494.080949,108.016 498.094282,106.926667 501.534282,104.748 C504.974282,102.569333 507.640282,99.502 509.532282,95.546 C511.424282,91.59 512.370282,86.9746667 512.370282,81.7 C512.370282,76.54 511.424282,72.0106667 509.532282,68.112 C507.640282,64.2133333 504.974282,61.146 501.534282,58.91 C498.094282,56.674 494.080949,55.556 489.494282,55.556 Z" id="Combined-Shape"></path>
            </g>
            <g id="Fabular-chosen-Copy-2">
                <rect id="Rectangle" fill="#FF8473" x="64" y="0" width="64" height="64"></rect>
                <rect id="Rectangle-Copy" fill="#F25230" x="128" y="0" width="64" height="64"></rect>
                <path d="M128,64 L192,64 L192,104 C192,117.254834 181.254834,128 168,128 L128,128 L128,128 L128,64 Z" id="Rectangle-Copy-2" fill="#F2B930"></path>
                <rect id="Rectangle-Copy-3" fill="#9FBFFF" x="64" y="128" width="64" height="64"></rect>
                <rect id="Rectangle-Copy-4" fill="#6E59FF" x="0" y="128" width="64" height="64"></rect>
                <rect id="Rectangle-Copy-5" fill="#9E9CFF" x="0" y="64" width="64" height="64"></rect>
                <polygon id="Rectangle-Copy-6" fill="#6236FF" transform="translate(96.000000, 224.000000) rotate(-180.000000) translate(-96.000000, -224.000000) " points="128 192 128 256 64 256"></polygon>
                <polygon id="Rectangle-Copy-7" fill="#6236FF" transform="translate(32.019531, 32.074219) rotate(-360.000000) translate(-32.019531, -32.074219) " points="64.0195312 0.07421875 64.0195312 64.0742188 0.01953125 64.0742188"></polygon>
            </g>
        </g>
    </g>
</svg>